HIERARCHY
ROOT Hips
{
  OFFSET -248.359 102.267 -238.221
  CHANNELS 6 Xposition Yposition Zposition Zrotation Xrotation Yrotation
  JOINT ToSpine
  {
    OFFSET -2.69724 7.43032 -0.144315
    CHANNELS 3 Zrotation Xrotation Yrotation
    JOINT Spine
    {
      OFFSET -0.0310711 10.7595 1.96963
      CHANNELS 3 Zrotation Xrotation Yrotation
      JOINT Spine1
      {
        OFFSET 19.9056 3.91189 0.764692
        CHANNELS 3 Zrotation Xrotation Yrotation
        JOINT Neck
        {
          OFFSET 25.9749 7.03908 -0.130764
          CHANNELS 3 Zrotation Xrotation Yrotation
          JOINT Head
          {
            OFFSET 9.52751 0.295786 -0.907742
            CHANNELS 3 Zrotation Xrotation Yrotation
            End Site
            {
              OFFSET 16.4037 0.713936 2.7358
            }
          }
        }
        JOINT LeftShoulder
        {
          OFFSET 17.7449 4.33886 11.7777
          CHANNELS 3 Zrotation Xrotation Yrotation
          JOINT LeftArm
          {
            OFFSET 0.911315 1.27913 9.80584
            CHANNELS 3 Zrotation Xrotation Yrotation
            JOINT LeftForeArm
            {
              OFFSET 28.6126 1.18197 -3.53199
              CHANNELS 3 Zrotation Xrotation Yrotation
              JOINT LeftHand
              {
                OFFSET 27.5088 0.0218783 0.327423
                CHANNELS 3 Zrotation Xrotation Yrotation
                End Site
                {
                  OFFSET 18.6038 -0.000155887 0.382096
                }
              }
            }
          }
        }
        JOINT RightShoulder
        {
          OFFSET 17.1009 2.89543 -12.2328
          CHANNELS 3 Zrotation Xrotation Yrotation
          JOINT RightArm
          {
            OFFSET 1.4228 0.178766 -10.211
            CHANNELS 3 Zrotation Xrotation Yrotation
            JOINT RightForeArm
            {
              OFFSET 28.733 1.87905 2.64907
              CHANNELS 3 Zrotation Xrotation Yrotation
              JOINT RightHand
              {
                OFFSET 27.4588 0.290562 -0.101845
                CHANNELS 3 Zrotation Xrotation Yrotation
                End Site
                {
                  OFFSET 17.8396 -0.255518 -0.000602873
                }
              }
            }
          }
        }
      }
    }
  }
  JOINT LeftUpLeg
  {
    OFFSET -5.61296 -2.22332 -10.2353
    CHANNELS 3 Zrotation Xrotation Yrotation
    JOINT LeftLeg
    {
      OFFSET 2.56703 -44.7417 -7.93097
      CHANNELS 3 Zrotation Xrotation Yrotation
      JOINT LeftFoot
      {
        OFFSET 3.16933 -46.5642 -3.96578
        CHANNELS 3 Zrotation Xrotation Yrotation
        JOINT LeftToeBase
        {
          OFFSET 0.346054 -6.02161 12.8035
          CHANNELS 3 Zrotation Xrotation Yrotation
          End Site
          {
            OFFSET 0.134235 -1.35082 5.13018
          }
        }
      }
    }
  }
  JOINT RightUpLeg
  {
    OFFSET -5.7928 -1.72406 10.6446
    CHANNELS 3 Zrotation Xrotation Yrotation
    JOINT RightLeg
    {
      OFFSET -2.57161 -44.7178 -7.85259
      CHANNELS 3 Zrotation Xrotation Yrotation
      JOINT RightFoot
      {
        OFFSET -3.10148 -46.5936 -4.03391
        CHANNELS 3 Zrotation Xrotation Yrotation
        JOINT RightToeBase
        {
          OFFSET -0.0828122 -6.13587 12.8035
          CHANNELS 3 Zrotation Xrotation Yrotation
          End Site
          {
            OFFSET -0.131328 -1.35082 5.13018
          }
        }
      }
    }
  }
}
MOTION
Frames:	13
Frame Time:	0.0333333
-158.141 73.6242 -144.685 -88.5887 49.9851 -172.71 -70.1915 0 88.8779 151.035 50.5918 -60.9623 23.1536 19.1241 -8.04119 -150.49 16.7144 177.02 -139.041 51.4316 166.92 1.90828 -5.19621 -29.0717 -97.4137 44.6149 -123.989 -3.97511 33.4795 1.62736 34.7802 -0.336242 0.629591 0.0337188 1.21779 24.9712 -84.6762 -42.2913 114.277 -11.5547 18.0003 39.3989 0.565489 -0.00313446 6.49456 -15.374 2.18091 75.2512 -167.985 60.8242 158.118 7.9724 4.21395 -1.06014 -8.36521 -37.8786 14.5351 -12.066 -3.37377 74.092 157.633 76.953 -145.847 -7.51199 -2.28806 1.09599 8.09335 -7.88165 -17.6476 
-163.406 73.0003 -149.128 -87.3199 53.3121 -174.882 -70.1915 0 88.8779 151.854 51.2473 -61.9514 21.1743 20.2076 -9.65291 -147.914 16.708 175.773 -138.349 51.6734 168.437 1.83734 -5.80947 -29.945 -98.7075 40.6563 -120.227 -6.82977 37.1285 5.47291 26.906 -0.273159 0.5557 0.128263 0.518203 23.952 -93.7182 -46.5728 114.027 -13.5594 15.61 46.9679 3.2181 0.136797 5.65905 -8.35486 -0.453988 74.3069 -163.471 70.9291 151.764 6.92589 3.00881 -0.910897 -8.30135 -36.7845 13.6496 -15.1491 -3.19749 76.1531 160.815 73.2127 -144.293 -7.64979 -6.89503 1.13262 9.59812 -14.0916 -18.6266 
-168.423 72.5989 -153.547 -83.3159 54.8118 176.81 -70.1915 0 88.8779 147.71 54.8959 -63.1032 20.7565 20.8115 -9.77331 -149.352 15.5921 173.294 -136.803 49.6522 165.085 1.96333 -5.3842 -31.0763 -101.309 40.098 -116.749 -8.11406 34.2423 9.23201 23.0462 -0.0554235 1.4086 0.17792 0.125051 23.0334 -94.2546 -48.2597 115.155 -10.0043 9.88279 51.8858 5.00843 0.252438 6.2172 -4.24938 -3.18848 77.5799 -102.354 85.4928 89.0063 5.59002 5.19022 -0.664816 -8.37471 -37.6662 14.1982 -17.3336 -5.54835 80.7413 162.181 71.0107 -143.048 -8.76474 -4.0779 1.21524 13.8549 -33.6837 -16.7794 
-173.304 72.5153 -158.042 -79.195 55.5592 170.501 -70.1915 0 88.8779 144.802 57.7014 -64.0479 19.2437 21.7657 -8.39699 -150.757 15.3357 174.196 -139.082 49.8423 165.741 2.19243 -4.96965 -34.2227 -102.929 38.9425 -113.029 -7.18603 28.7261 8.73419 20.1102 0.78051 5.99706 0.213631 -0.241321 23.9353 -91.0629 -46.8039 114.195 -8.23841 7.03471 56.2563 2.84562 0.139114 6.78618 -2.44446 -4.35655 77.9741 -16.8332 76.453 -0.969711 2.97555 14.0348 0.168201 -6.48303 -23.4077 21.6344 -18.9586 -6.40924 84.8248 164.034 68.901 -147.491 -9.07323 -8.16885 1.21119 14.3076 -35.66 -13.8448 
-178.852 72.1813 -163.141 -79.2192 57.8109 171.272 -70.1915 0 88.8779 144.694 58.0158 -64.0455 17.941 21.9634 -8.17284 -151.826 13.9514 174.523 -138.951 48.1416 165.384 2.36788 -4.27718 -34.6661 -103.692 38.6397 -106.743 -6.62041 22.7345 8.32864 19.6921 0.55466 4.81003 0.221615 -0.353887 26.5798 -86.3365 -45.7589 114.188 -4.43363 4.5154 55.7711 0.387874 -0.0143674 6.78022 -1.71067 -2.14964 77.616 -18.4899 77.7373 2.41642 2.1545 15.2936 0.431438 -5.9527 -19.7069 16.5117 -23.2594 -5.25454 86.9576 165.37 65.9277 -147.885 -9.7789 -9.67503 1.22623 14.0942 -35.0456 -13.1417 
-184.816 71.4778 -168.256 -81.076 60.7739 173.204 -70.1915 0 88.8779 143.07 58.5012 -64.0336 18.0391 21.5875 -7.40758 -153.438 12.136 175.47 -139.566 46.1482 165.382 2.73209 -3.13017 -36.3453 -104.564 37.0841 -102.421 -6.45603 21.9207 8.28356 18.2409 0.50557 4.75593 0.132888 0.187557 28.9 -81.5982 -45.3641 114.852 0.692891 1.33887 51.2504 2.34961 0.0993519 6.20471 -2.10397 1.33505 80.516 -74.309 85.4872 59.969 5.6665 5.73785 -0.665019 -5.57955 -16.4525 16.2988 -28.768 -4.36403 90.6493 166.102 63.5485 -147.033 -10.1505 -9.9298 1.23579 13.7024 -34.2989 -9.56148 
-189.365 71.987 -172.183 -79.9328 58.6769 171.302 -70.1915 0 88.8779 139.515 58.8482 -62.4345 17.8414 20.3696 -7.04436 -154.534 11.9146 174.487 -138.441 45.6626 165.163 2.63043 -3.61434 -36.5629 -106.307 36.8605 -102.685 -6.27258 27.9799 8.68103 18.0673 0.115656 2.37796 0.0907524 0.301825 32.0654 -82.0776 -45.6157 110.974 4.64534 -2.09501 44.5418 5.63538 0.265005 5.68115 -2.53127 -0.702375 83.4119 -121.98 84.6029 107.857 7.38314 8.88265 -0.930659 -6.80858 -27.0648 14.8232 -31.916 -5.88041 92.9678 166.393 62.8823 -147.739 -9.90759 -8.7404 1.24503 13.3369 -32.9984 -11.0302 
-192.955 72.9406 -176.001 -77.5918 56.9522 169.939 -70.1915 0 88.8779 140.033 58.9823 -62.5691 16.5786 20.6594 -6.32984 -155.402 12.9034 174.414 -139.041 47.0523 165.801 2.52639 -3.78689 -35.5048 -106.52 38.1904 -106.609 -6.20742 32.0358 9.02333 16.3248 0.18828 2.9438 0.119736 0.087939 33.8824 -83.8068 -46.8319 106.009 3.48739 -1.0141 35.7719 8.47468 0.292983 3.90155 -3.15776 -2.12228 83.549 -139.484 82.6338 124.729 7.96082 10.3891 -1.03931 -7.88261 -33.8928 13.2211 -31.84 -3.87971 92.8484 167.757 60.7597 -154.895 -8.1495 -8.25003 1.16434 9.73407 -18.1013 -15.3093 
-195.277 74.5042 -179.101 -74.8331 53.9733 168.421 -70.1915 0 88.8779 140.395 59.3801 -63.1331 15.7661 20.9457 -4.08814 -156.293 13.9691 174.415 -138.138 47.7862 164.429 2.52082 -3.86 -35.6969 -102.519 37.8141 -113.268 -7.82312 32.0544 9.01749 16.9999 0.124973 2.48014 0.124494 0.0701899 33.6722 -84.3446 -48.6827 103.001 0.563089 4.4964 27.1254 9.47301 0.176613 1.91621 -2.87034 -3.50845 83.3925 -143.826 81.498 126.605 7.46462 9.35021 -0.943229 -7.62867 -32.7488 14.2452 -27.9242 -1.80648 90.2544 169.309 58.876 -164.399 -7.77215 -2.94748 1.12505 7.74606 0.829536 -21.3166 
-197.899 77.0134 -181.947 -74.4267 51.5234 167.703 -70.1915 0 88.8779 139.936 59.4862 -62.9411 16.2412 20.9651 -3.92641 -156.188 14.6576 174.547 -137.671 48.4 164.054 2.55998 -3.66376 -35.5927 -98.4047 36.0663 -118.622 -5.4828 30.258 1.5149 14.651 -0.157464 0.452595 0.143769 -0.043431 34.4005 -89.6252 -48.8047 99.0075 -1.21682 2.92407 17.4208 6.16565 0.0393803 0.443762 -5.57348 -4.56311 84.8861 -138.891 82.3421 120.219 7.55138 7.92235 -0.969945 -7.42741 -31.3511 14.1995 -24.5678 -0.788742 88.7439 169.501 58.8165 -165.784 -7.19058 -3.6033 1.07485 5.03083 24.0492 -22.7745 
-200.614 79.59 -184.817 -72.9966 48.944 167.213 -70.1915 0 88.8779 138.956 59.9872 -60.2744 15.8305 20.8215 -4.1365 -155.046 14.9163 173.375 -138.243 48.6925 163.332 2.58792 -3.33185 -34.8245 -93.967 34.3592 -123.143 -0.735 30.8616 -8.85994 12.1659 -0.449388 -2.4673 0.105948 0.112293 35.352 -100.889 -48.2169 90.2755 -0.982103 -9.36403 9.13144 1.83996 -0.00644002 -1.01299 -8.1263 -5.25196 85.5006 -127.822 83.7289 108.43 8.14146 8.37103 -1.08015 -7.70969 -32.529 12.5961 -20.7919 -0.0480989 86.4228 168.362 61.2194 -160.596 -7.54856 -7.03097 1.12715 4.18629 15.6105 -18.5758 
-202.995 82.0766 -187.65 -71.1528 46.9802 166.717 -70.1915 0 88.8779 137.914 61.6274 -57.4812 16.4103 21.3205 -4.10483 -153.764 16.1126 172.436 -136.645 49.9008 163.722 2.31395 -3.72824 -31.6917 -82.75 32.0746 -131.499 5.57824 25.0725 -16.8654 12.0164 -0.752248 -5.31171 0.156036 -0.138064 36.3099 -97.1561 -46.1218 91.3613 -1.45959 -16.6605 5.9885 0.38125 0.00189756 -1.02662 -10.3388 -5.24704 85.2841 -112.375 84.6923 91.8556 7.75127 7.40311 -1.01004 -7.56517 -31.5423 12.3171 -16.5661 1.28528 84.8309 166.59 66.3276 -157.707 -7.70713 -7.09204 1.13705 4.06329 6.91714 -14.696 
-205.328 84.8293 -190.518 -70.6875 45.4434 167.238 -70.1915 0 88.8779 136.638 62.5037 -55.1832 15.6382 21.2998 -2.95752 -153.955 16.2348 172.03 -137.034 49.872 162.547 2.21164 -3.79314 -30.1489 -75.4549 28.5739 -135.242 11.119 19.8442 -24.3434 12.6197 -1.0045 -7.19463 0.21963 -0.42092 35.9548 -95.9384 -46.3413 89.7311 -1.5473 -20.5402 5.36083 -0.313083 0.0127777 -1.86173 -14.005 -4.91387 85.0899 -78.9404 85.1618 58.2824 8.36805 6.94375 -1.12305 -7.50954 -30.7236 10.7407 -14.2718 2.0728 84.0047 162.688 73.2923 -153.908 -8.62492 -7.93976 1.18926 5.01478 6.40165 -16.7516 
